<svg width="80" height="71" viewBox="0 0 80 71" fill="none" xmlns="http://www.w3.org/2000/svg">
<g clip-path="url(#clip0_542_431)">
<path d="M10.9387 28.3836H8V37.5426H10.9227C12.4773 37.5426 13.6 37.2136 14.5867 36.4847C15.7573 35.6185 16.448 34.3168 16.448 32.9678C16.448 30.2651 14.1867 28.3836 10.9387 28.3836ZM13.28 35.2635C12.6507 35.7699 11.8347 35.99 10.5413 35.99H10V29.9337H10.5387C11.832 29.9337 12.6187 30.142 13.2773 30.6745C13.9707 31.2259 14.3867 32.0779 14.3867 32.956C14.3867 33.834 13.9707 34.712 13.2773 35.2635H13.28ZM17.3707 28.3836H19.3707V37.5426H17.3707V28.3836ZM24.2667 31.8981C23.0667 31.5005 22.7147 31.2401 22.7147 30.7455C22.7147 30.168 23.3413 29.7278 24.2053 29.7278C24.8053 29.7278 25.2987 29.9503 25.8187 30.471L26.8667 29.2474C26.0389 28.5889 24.9649 28.227 23.8533 28.2321C22.0347 28.2321 20.6507 29.3563 20.6507 30.8567C20.6507 32.1182 21.2933 32.7643 23.176 33.3654C23.9573 33.6139 24.3573 33.7772 24.56 33.8884C24.96 34.1227 25.16 34.4517 25.16 34.8351C25.16 35.5782 24.4987 36.1273 23.6053 36.1273C22.6507 36.1273 21.88 35.7013 21.4187 34.9061L20.1253 36.0184C21.048 37.2254 22.1573 37.7603 23.68 37.7603C25.76 37.7603 27.2213 36.5273 27.2213 34.7546C27.2213 33.2991 26.544 32.6412 24.2667 31.8981ZM33.2693 37.7485C34.1307 37.7485 34.8693 37.597 35.7787 37.2136V35.112C34.9787 35.8267 34.2693 36.1131 33.3627 36.1131C31.3467 36.1131 29.9147 34.8114 29.9147 32.956C29.9147 31.1975 31.392 29.8083 33.2693 29.8083C34.224 29.8083 34.9493 30.116 35.7787 30.8402V28.7386C34.8987 28.341 34.1787 28.1753 33.3173 28.1753C30.2827 28.1753 27.8507 30.3053 27.8507 32.9678C27.8507 35.6611 30.2213 37.7485 33.2693 37.7485ZM52.1627 37.7769L56.5973 28.3812H54.4267L51.6533 34.5345L48.9173 28.3812H46.7307L51.0853 37.7769H52.1627ZM63.1813 35.99H59.5013V33.5192H63.0453V31.9667H59.5013V29.9337H63.1813V28.3836H57.5013V37.5426H63.1813V35.99ZM66.5067 33.8624H66.768L69.5387 37.5402H72L68.768 33.6825C70.2773 33.4104 71.1067 32.4897 71.1067 31.0863C71.1067 29.3728 69.784 28.3836 67.4747 28.3836H64.5067V37.5426H66.5067V33.8624ZM66.5067 29.8249H67.12C68.368 29.8249 69.048 30.2911 69.048 31.1833C69.048 32.104 68.368 32.5986 67.0907 32.5986H66.504V29.8249H66.5067Z" fill="white"/>
<path d="M74.6667 9.4668H5.33333C2.392 9.4668 0 11.5897 0 14.2001V56.8001C0 59.4106 2.392 61.5335 5.33333 61.5335H74.6667C77.608 61.5335 80 59.4106 80 56.8001V14.2001C80 11.5897 77.608 9.4668 74.6667 9.4668ZM2.66667 56.8001V14.2001C2.66667 12.8961 3.86133 11.8335 5.33333 11.8335H74.6667C76.1387 11.8335 77.3333 12.8961 77.3333 14.2001V37.5591C71.184 42.0487 54.464 52.8525 28.6747 59.1668H5.33333C3.86133 59.1668 2.66667 58.1042 2.66667 56.8001ZM77.3333 56.8001C77.3333 58.1042 76.136 59.1668 74.6667 59.1668H37.8373C57.4533 53.2549 70.8267 45.1514 77.3333 40.6145V56.8001Z" fill="white"/>
<path d="M41.8934 37.8669C44.9067 37.8669 47.3547 35.6848 47.3547 32.9915C47.3575 31.7033 46.7838 30.4668 45.7597 29.5539C44.7356 28.641 43.3449 28.1264 41.8934 28.1233C41.1744 28.1248 40.4629 28.2521 39.7993 28.4977C39.1358 28.7433 38.5332 29.1025 38.0261 29.5548C37.519 30.007 37.1172 30.5435 36.8437 31.1336C36.5701 31.7237 36.4303 32.3558 36.432 32.9939C36.432 35.6848 38.8774 37.8645 41.8934 37.8645V37.8669ZM41.8934 30.49C43.4347 30.49 44.688 31.6118 44.688 32.9939C44.688 34.376 43.4347 35.4978 41.8934 35.4978C40.352 35.4978 39.0987 34.376 39.0987 32.9939C39.0987 31.6118 40.352 30.49 41.8934 30.49Z" fill="white"/>
</g>
<defs>
<clipPath id="clip0_542_431">
<rect width="80" height="71" fill="white"/>
</clipPath>
</defs>
</svg>
