<svg width="22" height="20" viewBox="0 0 22 20" fill="none" xmlns="http://www.w3.org/2000/svg">
<path d="M4.17342 1.46171L4.30816 1.75H4.62638H20.4586C21.135 1.75 21.6453 2.40707 21.4625 3.08937L21.4622 3.09046L19.883 9.03901C19.883 9.03915 19.883 9.03929 19.8829 9.03943C19.6124 10.0521 18.7089 10.75 17.6889 10.75H6.57555H5.97348L6.08406 11.3418L6.29207 12.4551L6.29254 12.4576C6.42131 13.1283 7.00367 13.625 7.69267 13.625H18.7983C19.0279 13.625 19.2228 13.8125 19.2228 14.0625C19.2228 14.3125 19.0279 14.5 18.7983 14.5H7.69267C6.60492 14.5 5.66401 13.715 5.46078 12.6233L5.46064 12.6226L3.47348 2.03954C3.47337 2.03893 3.47326 2.03832 3.47315 2.0377C3.4021 1.65157 3.06761 1.375 2.67722 1.375H0.924507C0.694874 1.375 0.5 1.18749 0.5 0.9375C0.5 0.687509 0.694874 0.5 0.924507 0.5H2.67722C3.32407 0.5 3.90232 0.881674 4.17342 1.46171ZM5.4307 18.125C5.4307 17.9435 5.46597 17.7639 5.53432 17.5965C5.60267 17.4292 5.70267 17.2776 5.82828 17.1503C5.95387 17.0229 6.10259 16.9222 6.26576 16.8537C6.42891 16.7852 6.60354 16.75 6.77972 16.75C6.95589 16.75 7.13052 16.7852 7.29367 16.8537C7.45684 16.9222 7.60556 17.0229 7.73115 17.1503C7.85676 17.2776 7.95676 17.4292 8.02511 17.5965C8.09346 17.7639 8.12873 17.9435 8.12873 18.125C8.12873 18.3065 8.09346 18.4861 8.02511 18.6535C7.95676 18.8208 7.85676 18.9724 7.73115 19.0997C7.60556 19.2271 7.45684 19.3278 7.29367 19.3963C7.13052 19.4648 6.95589 19.5 6.77972 19.5C6.60354 19.5 6.42891 19.4648 6.26576 19.3963C6.10259 19.3278 5.95387 19.2271 5.82828 19.0997C5.70267 18.9724 5.60267 18.8208 5.53432 18.6535C5.46597 18.4861 5.4307 18.3065 5.4307 18.125ZM17.8738 16.75C18.2293 16.75 18.5717 16.8931 18.8252 17.1503C19.079 17.4076 19.2228 17.7581 19.2228 18.125C19.2228 18.4919 19.079 18.8424 18.8252 19.0997C18.5717 19.3569 18.2293 19.5 17.8738 19.5C17.5183 19.5 17.1759 19.3569 16.9224 19.0997C16.6686 18.8424 16.5248 18.4919 16.5248 18.125C16.5248 17.7581 16.6686 17.4076 16.9224 17.1503C17.1759 16.8931 17.5183 16.75 17.8738 16.75Z" fill="#C9C9C9" stroke="black"/>
</svg>
