<svg width="27" height="22" viewBox="0 0 27 22" fill="none" xmlns="http://www.w3.org/2000/svg">
<path d="M1.36673 9.71085C0.646097 10.4239 0.646097 11.5819 1.36673 12.2949L10.5908 21.4218C11.3115 22.1348 12.4818 22.1348 13.2024 21.4218C13.9231 20.7087 13.9231 19.5508 13.2024 18.8377L7.12028 12.8254L24.8075 12.8254C25.8279 12.8254 26.6523 12.0097 26.6523 11C26.6523 9.99036 25.8279 9.17465 24.8075 9.17465L7.12604 9.17465L13.1967 3.16232C13.9173 2.44929 13.9173 1.29131 13.1967 0.578276C12.476 -0.13476 11.3057 -0.13476 10.5851 0.578276L1.36097 9.70515L1.36673 9.71085Z" fill="black"/>
</svg>
